<?xml version="1.0" encoding="UTF-8"?>
<svg version="1.1" xmlns="http://www.w3.org/2000/svg" width="512" height="512">
<path d="M0 0 C1.01790619 0.00215515 2.03581238 0.0043103 3.08456421 0.00653076 C17.69363523 0.05620146 32.02575853 0.30709809 46.375 3.3125 C47.34985352 3.51117676 48.32470703 3.70985352 49.32910156 3.91455078 C97.7109774 14.03517194 141.69928269 35.9516877 177.375 70.3125 C178.3640332 71.26068604 178.3640332 71.26068604 179.37304688 72.22802734 C188.86130305 81.37247479 197.6012044 90.66984009 205.375 101.3125 C206.23306152 102.46355017 207.09113451 103.61459177 207.94921875 104.765625 C213.98736829 112.95680614 219.34595521 121.47054105 224.375 130.3125 C224.73948242 130.94430176 225.10396484 131.57610352 225.47949219 132.22705078 C247.08534998 169.97532572 256.85198095 212.74189997 256.6875 255.9375 C256.68534485 256.95540619 256.6831897 257.97331238 256.68096924 259.02206421 C256.63129854 273.63113523 256.38040191 287.96325853 253.375 302.3125 C253.07698486 303.77478027 253.07698486 303.77478027 252.77294922 305.26660156 C242.65232806 353.6484774 220.7358123 397.63678269 186.375 433.3125 C185.74287598 433.97185547 185.11075195 434.63121094 184.45947266 435.31054688 C175.31502521 444.79880305 166.01765991 453.5387044 155.375 461.3125 C154.22394983 462.17056152 153.07290823 463.02863451 151.921875 463.88671875 C143.73224019 469.92427396 135.22961724 475.30707302 126.375 480.3125 C125.66778809 480.7146875 124.96057617 481.116875 124.23193359 481.53125 C101.09654164 494.5566741 75.92537591 503.30551461 49.9375 508.625 C49.21860596 508.77235596 48.49971191 508.91971191 47.7590332 509.0715332 C33.08339502 511.86090125 18.55831162 512.66142619 3.64770508 512.62817383 C0.70811513 512.6250221 -2.2304558 512.64854926 -5.16992188 512.67382812 C-18.54306192 512.71848737 -31.43916711 511.51301542 -44.625 509.3125 C-46.33055054 509.03031616 -46.33055054 509.03031616 -48.07055664 508.74243164 C-91.33802759 500.97044532 -132.38793216 480.98345309 -165.625 452.3125 C-166.37007813 451.67828125 -167.11515625 451.0440625 -167.8828125 450.390625 C-181.38779833 438.57948485 -194.05918743 425.82889772 -204.625 411.3125 C-205.48149066 410.16255169 -206.33826433 409.01281411 -207.1953125 407.86328125 C-213.23534209 399.67315742 -218.61867614 391.16870382 -223.625 382.3125 C-224.0271875 381.60528809 -224.429375 380.89807617 -224.84375 380.16943359 C-237.8691741 357.03404164 -246.61801461 331.86287591 -251.9375 305.875 C-252.08485596 305.15610596 -252.23221191 304.43721191 -252.3840332 303.6965332 C-255.35789088 288.05024391 -255.99800362 272.57681954 -255.9375 256.6875 C-255.93534485 255.66959381 -255.9331897 254.65168762 -255.93096924 253.60293579 C-255.88129854 238.99386477 -255.63040191 224.66174147 -252.625 210.3125 C-252.42632324 209.33764648 -252.22764648 208.36279297 -252.02294922 207.35839844 C-241.90232806 158.9765226 -219.9858123 114.98821731 -185.625 79.3125 C-184.99287598 78.65314453 -184.36075195 77.99378906 -183.70947266 77.31445312 C-174.56502521 67.82619695 -165.26765991 59.0862956 -154.625 51.3125 C-153.47394983 50.45443848 -152.32290823 49.59636549 -151.171875 48.73828125 C-142.98224019 42.70072604 -134.47961724 37.31792698 -125.625 32.3125 C-124.91778809 31.9103125 -124.21057617 31.508125 -123.48193359 31.09375 C-100.34654164 18.0683259 -75.17537591 9.31948539 -49.1875 4 C-48.46860596 3.85264404 -47.74971191 3.70528809 -47.0090332 3.5534668 C-31.36274391 0.57960912 -15.88931954 -0.06050362 0 0 Z " fill="#FE936B" transform="translate(255.625,-0.3125)"/>
<path d="M0 0 C3.80390519 3.70672513 7.31185382 7.57870831 10.75 11.625 C11.27585693 12.24109131 11.80171387 12.85718262 12.34350586 13.49194336 C16.1969428 18.0203323 19.97439687 22.60680699 23.72265625 27.22265625 C26.28204054 30.34396367 28.88593791 33.4245003 31.5 36.5 C35.61212524 41.33900531 39.6534135 46.22933305 43.66015625 51.15625 C46.8512285 55.03454816 50.1040901 58.85935656 53.37109375 62.67382812 C55.39966777 65.05327468 57.26271453 67.39407179 59 70 C61.50203571 70.48526354 61.50203571 70.48526354 64.48143005 70.44824219 C65.64626419 70.47115326 66.81109833 70.49406433 68.01123047 70.51766968 C69.29586182 70.52730743 70.58049316 70.53694519 71.90405273 70.546875 C73.26580988 70.56730469 74.62755044 70.5888672 75.98927307 70.61148071 C80.47058 70.67984135 84.95191716 70.71583667 89.43359375 70.75 C90.97803442 70.7634563 92.52247375 70.77706767 94.0669117 70.79083252 C100.49639748 70.84622556 106.92585149 70.89390201 113.35552883 70.91995239 C122.55739066 70.95725955 131.75627387 71.03894069 140.95707363 71.18508148 C147.43198083 71.28438208 153.90610201 71.33327806 160.3817535 71.34516144 C164.2460068 71.35348976 168.10724119 71.38307044 171.9706707 71.46618652 C188.51364374 72.69198534 188.51364374 72.69198534 203.23928833 67.20605469 C206.19252996 64.12289051 208.03740779 60.77238885 210 57 C211.45981825 55.13451299 212.954339 53.29500506 214.5 51.5 C215.5828125 50.1696875 215.5828125 50.1696875 216.6875 48.8125 C219.72367366 45.11985636 222.8184997 41.47878212 225.9140625 37.8359375 C229.55741186 33.54126311 233.12583109 29.18939046 236.6796875 24.8203125 C239.29428789 21.64229654 241.95641424 18.50764815 244.625 15.375 C248.89543802 10.35832945 253.02232847 5.25378458 257 0 C259.43456499 2.96207394 260.7932249 5.69374049 262.05859375 9.30444336 C262.43826294 10.37649521 262.81793213 11.44854706 263.20910645 12.55308533 C263.81716125 14.30378075 263.81716125 14.30378075 264.4375 16.08984375 C265.10032798 17.9697693 265.76315786 19.84969417 266.42606354 21.72959232 C267.13344634 23.73987355 267.83736552 25.75133702 268.5402832 27.76318359 C270.0164915 31.98786397 271.50234938 36.20910748 272.99023438 40.4296875 C273.49573814 41.86385735 274.00123127 43.29803094 274.50671387 44.73220825 C274.7578746 45.44477909 275.00903534 46.15734993 275.26780701 46.89151382 C276.03475116 49.06853202 276.80076547 51.24587536 277.56652832 53.42330933 C281.78443371 65.41371174 286.06198868 77.38213791 290.36486816 89.34231567 C291.50167926 92.50467133 292.63564519 95.66803177 293.76855469 98.83178711 C297.41764099 109.02188144 301.07324407 119.2094638 304.7545929 129.38794708 C306.83500161 135.14200175 308.90614436 140.89934663 310.97154236 146.65880585 C312.22831492 150.16206972 313.48948744 153.66360557 314.76147461 157.16137695 C316.17202608 161.04037719 317.56327458 164.92603446 318.953125 168.8125 C319.59214752 170.55545349 319.59214752 170.55545349 320.24407959 172.33361816 C320.6240509 173.40559448 321.00402222 174.4775708 321.39550781 175.58203125 C321.73124817 176.51249268 322.06698853 177.4429541 322.41290283 178.40161133 C323.07773827 181.3440559 322.88516832 183.13288395 322 186 C320.25341797 188.18481445 320.25341797 188.18481445 317.9921875 190.36328125 C317.16976563 191.16830078 316.34734375 191.97332031 315.5 192.80273438 C314.63375 193.63095703 313.7675 194.45917969 312.875 195.3125 C311.18249514 196.95195233 309.49235698 198.59385175 307.8046875 200.23828125 C307.05171387 200.96055908 306.29874023 201.68283691 305.52294922 202.42700195 C303.55585236 204.43312096 301.73394647 206.45184902 299.91064453 208.58276367 C295.58060442 213.57470801 290.90278874 218.2101542 286.21405029 222.8611145 C284.58766731 224.47453514 282.96460304 226.09123271 281.34228516 227.70874023 C277.31536577 231.72241101 273.28297337 235.73056835 269.25073242 239.7388916 C265.8317138 243.13805724 262.41483601 246.53934867 259.00067139 249.94338989 C257.41478994 251.52287066 255.82588904 253.09926797 254.23681641 254.67553711 C249.59815949 259.29092904 245.10369723 263.95689044 240.84741211 268.92773438 C237.20707838 273.01114296 233.28215096 276.82497447 229.39924622 280.67591858 C227.80646509 282.25573133 226.21700843 283.83882586 224.6282959 285.42272949 C220.68485384 289.35292659 216.73593714 293.27760772 212.78717041 297.20245361 C209.43860973 300.53115714 206.09219307 303.86198931 202.74848938 307.1955719 C201.19584762 308.74181555 199.64018597 310.2849738 198.08435059 311.82800293 C194.1138001 315.77821626 190.16858913 319.71785665 186.5246582 323.9753418 C182.29789689 328.90908565 177.66990698 333.44181104 173.06122398 338.01394081 C171.41522649 339.64700644 169.77252125 341.28332321 168.13056946 342.92045593 C164.65237522 346.38731828 161.17022375 349.8501887 157.6875 353.3125 C153.63126441 357.34509218 149.57669002 361.37932677 145.52628517 365.41777611 C143.90967149 367.02792036 142.29007278 368.63502019 140.67033386 370.24201965 C139.68201223 371.22670979 138.69383015 372.21154002 137.70581055 373.1965332 C136.84312057 374.05398636 135.9804306 374.91143951 135.09159851 375.7948761 C132.86743652 378.01451774 132.86743652 378.01451774 131 381 C127.15877496 380.43633333 125.41007847 378.77993786 122.7097168 376.06616211 C121.45272224 374.8136692 121.45272224 374.8136692 120.17033386 373.53587341 C118.82338188 372.17040123 118.82338188 372.17040123 117.44921875 370.77734375 C116.51705032 369.84330215 115.5848819 368.90926056 114.62446594 367.94691467 C112.64876217 365.96660812 110.67806536 363.98149818 108.71118164 361.99243164 C106.20993052 359.46309247 103.70026851 356.94232549 101.18718243 354.42475033 C98.77137951 352.00374304 96.36025132 349.57810002 93.94921875 347.15234375 C93.05732346 346.25619858 92.16542816 345.36005341 91.24650574 344.43675232 C87.58199245 340.73069457 83.96683619 337.02562066 80.57543945 333.06665039 C76.42711241 328.24757724 71.91103919 323.79873731 67.39924622 319.32408142 C65.80646509 317.74426867 64.21700843 316.16117414 62.6282959 314.57727051 C59.25502687 311.21533139 55.87782398 307.85736181 52.5 304.5 C48.58028165 300.60402651 44.66227258 296.70636462 40.74848938 292.8044281 C39.19584762 291.25818445 37.64018597 289.7150262 36.08435059 288.17199707 C32.11013086 284.21813271 28.16184863 280.27431626 24.51367188 276.01367188 C20.33742176 271.13895269 15.768129 266.65627105 11.21405029 262.1388855 C9.58766731 260.52546486 7.96460304 258.90876729 6.34228516 257.29125977 C2.89768516 253.85799254 -0.55084781 250.42869316 -4 247 C-8.00232205 243.02141817 -12.00293815 239.0411508 -15.99932861 235.05661011 C-17.58521006 233.47712934 -19.17411096 231.90073203 -20.76318359 230.32446289 C-25.48739491 225.62374118 -30.06935347 220.87035578 -34.40332031 215.80593872 C-37.11890891 212.73444815 -40.09165502 209.94245615 -43.0625 207.12109375 C-44.36691493 205.85848461 -45.67027122 204.59478101 -46.97265625 203.33007812 C-48.99555129 201.36914875 -51.02350572 199.4152558 -53.06982422 197.47875977 C-55.0652168 195.58620044 -57.03407941 193.6691886 -59 191.74609375 C-59.6175415 191.17297958 -60.23508301 190.59986542 -60.87133789 190.00938416 C-63.87961956 187.02175809 -64.99563536 185.89119792 -65.01708984 181.51049805 C-63.99846799 177.99471226 -62.95381089 174.53518124 -61.7265625 171.0859375 C-61.49156036 170.42000076 -61.25655823 169.75406403 -61.01443481 169.06794739 C-60.22433451 166.83464495 -59.42470662 164.60487894 -58.625 162.375 C-58.04930592 160.75449025 -57.47412653 159.13379759 -56.89941406 157.51293945 C-54.94320849 152.00494138 -52.97208779 146.50232763 -51 141 C-50.26591738 138.95004442 -49.53186866 136.9000767 -48.79785156 134.85009766 C-45.63695286 126.02475941 -42.47330275 117.20041284 -39.30444336 108.37792969 C-33.89271349 93.30743422 -28.52410732 78.22224798 -23.1875 63.125 C-18.1216337 48.80059259 -13.0509566 34.47795997 -7.93301392 20.17205811 C-7.3157872 18.44572911 -6.69954016 16.71904951 -6.08432007 14.99200439 C-5.24647344 12.6408065 -4.40503588 10.29092711 -3.5625 7.94140625 C-3.31546829 7.24607285 -3.06843658 6.55073944 -2.81391907 5.83433533 C-1.11442859 1.11442859 -1.11442859 1.11442859 0 0 Z " fill="#ECE9E6" transform="translate(127,77)"/>
<path d="M0 0 C3.80390519 3.70672513 7.31185382 7.57870831 10.75 11.625 C11.27585693 12.24109131 11.80171387 12.85718262 12.34350586 13.49194336 C16.1969428 18.0203323 19.97439687 22.60680699 23.72265625 27.22265625 C26.28204054 30.34396367 28.88593791 33.4245003 31.5 36.5 C35.61212524 41.33900531 39.6534135 46.22933305 43.66015625 51.15625 C46.8512285 55.03454816 50.1040901 58.85935656 53.37109375 62.67382812 C55.39966777 65.05327468 57.26271453 67.39407179 59 70 C82.1 70.33 105.2 70.66 129 71 C129 173.3 129 275.6 129 381 C121.12298095 374.24826939 121.12298095 374.24826939 117.828125 370.95751953 C117.09045898 370.22300568 116.35279297 369.48849182 115.59277344 368.73171997 C114.8196582 367.95658051 114.04654297 367.18144104 113.25 366.3828125 C112.43305664 365.56682587 111.61611328 364.75083923 110.77441406 363.91012573 C109.05541164 362.1918007 107.33765893 360.47222464 105.62109375 358.75146484 C103.01152936 356.13655299 100.39668234 353.52700999 97.78125 350.91796875 C96.10384603 349.23990378 94.42675239 347.56152854 92.75 345.8828125 C91.97688477 345.1117215 91.20376953 344.34063049 90.40722656 343.5461731 C87.04138254 340.1659463 83.75404184 336.76953715 80.65039062 333.14599609 C76.47406047 328.30264218 71.93711312 323.82459662 67.39924622 319.32408142 C65.80646509 317.74426867 64.21700843 316.16117414 62.6282959 314.57727051 C59.25502687 311.21533139 55.87782398 307.85736181 52.5 304.5 C48.58028165 300.60402651 44.66227258 296.70636462 40.74848938 292.8044281 C39.19584762 291.25818445 37.64018597 289.7150262 36.08435059 288.17199707 C32.11013086 284.21813271 28.16184863 280.27431626 24.51367188 276.01367188 C20.33742176 271.13895269 15.768129 266.65627105 11.21405029 262.1388855 C9.58766731 260.52546486 7.96460304 258.90876729 6.34228516 257.29125977 C2.89768516 253.85799254 -0.55084781 250.42869316 -4 247 C-8.00232205 243.02141817 -12.00293815 239.0411508 -15.99932861 235.05661011 C-17.58521006 233.47712934 -19.17411096 231.90073203 -20.76318359 230.32446289 C-25.48739491 225.62374118 -30.06935347 220.87035578 -34.40332031 215.80593872 C-37.11890891 212.73444815 -40.09165502 209.94245615 -43.0625 207.12109375 C-44.36691493 205.85848461 -45.67027122 204.59478101 -46.97265625 203.33007812 C-48.99555129 201.36914875 -51.02350572 199.4152558 -53.06982422 197.47875977 C-55.0652168 195.58620044 -57.03407941 193.6691886 -59 191.74609375 C-59.6175415 191.17297958 -60.23508301 190.59986542 -60.87133789 190.00938416 C-63.87961956 187.02175809 -64.99563536 185.89119792 -65.01708984 181.51049805 C-63.99846799 177.99471226 -62.95381089 174.53518124 -61.7265625 171.0859375 C-61.49156036 170.42000076 -61.25655823 169.75406403 -61.01443481 169.06794739 C-60.22433451 166.83464495 -59.42470662 164.60487894 -58.625 162.375 C-58.04930592 160.75449025 -57.47412653 159.13379759 -56.89941406 157.51293945 C-54.94320849 152.00494138 -52.97208779 146.50232763 -51 141 C-50.26591738 138.95004442 -49.53186866 136.9000767 -48.79785156 134.85009766 C-45.63695286 126.02475941 -42.47330275 117.20041284 -39.30444336 108.37792969 C-33.89271349 93.30743422 -28.52410732 78.22224798 -23.1875 63.125 C-18.1216337 48.80059259 -13.0509566 34.47795997 -7.93301392 20.17205811 C-7.3157872 18.44572911 -6.69954016 16.71904951 -6.08432007 14.99200439 C-5.24647344 12.6408065 -4.40503588 10.29092711 -3.5625 7.94140625 C-3.31546829 7.24607285 -3.06843658 6.55073944 -2.81391907 5.83433533 C-1.11442859 1.11442859 -1.11442859 1.11442859 0 0 Z " fill="#FEFEFE" transform="translate(127,77)"/>
<path d="M0 0 C6.36069903 5.24489216 12.14437185 11.01651862 17.95239258 16.85473633 C19.04353849 17.94780434 20.13491447 19.04064273 21.22650146 20.13327026 C23.56435248 22.47426706 25.9006447 24.81680433 28.23572731 27.16056252 C31.92641548 30.86482507 35.62096165 34.56522364 39.31608582 38.26506042 C47.15119676 46.11124218 54.98205396 53.96166311 62.8125 61.8125 C71.2841752 70.30620052 79.75658333 78.79916237 88.23385733 87.28727549 C91.90937258 90.96778028 95.58243445 94.65071105 99.25365317 98.33550131 C101.53130334 100.62058932 103.81100409 102.90362293 106.09127808 105.18609238 C107.15077837 106.2474707 108.2094109 107.30971603 109.26712608 108.37287331 C110.70665734 109.81958003 112.14953704 111.26295264 113.59260559 112.70613098 C114.40022244 113.51596845 115.2078393 114.32580591 116.03992939 115.16018391 C117.87098303 117.05468389 117.87098303 117.05468389 120 118 C120.5625 119.6796875 120.5625 119.6796875 121 121.875 C121.165 122.69742188 121.33 123.51984375 121.5 124.3671875 C121.665 125.23601562 121.83 126.10484375 122 127 C122.165 127.80695313 122.33 128.61390625 122.5 129.4453125 C125.64253202 145.50168703 126.3746539 161.3022878 126.3125 177.625 C126.30926727 179.15185928 126.30926727 179.15185928 126.30596924 180.70956421 C126.25629854 195.31863523 126.00540191 209.65075853 123 224 C122.70198486 225.46228027 122.70198486 225.46228027 122.39794922 226.95410156 C112.27732806 275.3359774 90.3608123 319.32428269 56 355 C55.36787598 355.65935547 54.73575195 356.31871094 54.08447266 356.99804688 C44.94002521 366.48630305 35.64265991 375.2262044 25 383 C23.84894983 383.85806152 22.69790823 384.71613451 21.546875 385.57421875 C13.35724019 391.61177396 4.85461724 396.99457302 -4 402 C-4.70721191 402.4021875 -5.41442383 402.804375 -6.14306641 403.21875 C-26.32972964 414.58401454 -47.67154476 422.02608589 -70 428 C-70.59466064 428.19207031 -71.18932129 428.38414062 -71.80200195 428.58203125 C-72.89001099 428.78892578 -72.89001099 428.78892578 -74 429 C-75.17433594 429.23267578 -76.34867187 429.46535156 -77.55859375 429.70507812 C-83.14912685 429.60255278 -86.37507279 425.58773258 -90.07226562 421.83410645 C-91.06944995 420.79607636 -92.06618447 419.757614 -93.0625 418.71875 C-94.1030567 417.66325938 -95.1454036 416.6095309 -96.18945312 415.55749512 C-98.92332641 412.7931786 -101.63231828 410.00569031 -104.33673096 407.21258545 C-107.1043196 404.362937 -109.89489582 401.53599794 -112.68359375 398.70703125 C-118.14507943 393.15992775 -123.58046575 387.58813009 -129 382 C-127.58345986 377.4618245 -125.07398901 374.66785893 -121.7434082 371.41870117 C-120.94053627 370.61758156 -120.94053627 370.61758156 -120.1214447 369.80027771 C-118.35476403 368.04076852 -116.57780519 366.29202573 -114.80078125 364.54296875 C-113.56414692 363.3144789 -112.32825205 362.08524426 -111.09306335 360.8553009 C-107.83885244 357.61819879 -104.57618868 354.38975867 -101.31121826 351.16351318 C-96.10170476 346.01317881 -90.90466184 340.85027195 -85.70845604 335.68651772 C-83.90169602 333.89358943 -82.09109739 332.10461302 -80.27986145 330.31620789 C-75.27308771 325.36019218 -70.36774205 320.38778688 -65.79508972 315.02241516 C-62.17987348 310.94937744 -58.2647554 307.15777315 -54.39924622 303.32408142 C-52.80646509 301.74426867 -51.21700843 300.16117414 -49.6282959 298.57727051 C-45.68485384 294.64707341 -41.73593714 290.72239228 -37.78717041 286.79754639 C-34.43860973 283.46884286 -31.09219307 280.13801069 -27.74848938 276.8044281 C-26.19584762 275.25818445 -24.64018597 273.7150262 -23.08435059 272.17199707 C-19.11013086 268.21813271 -15.16184863 264.27431626 -11.51367188 260.01367188 C-7.33742176 255.13895269 -2.768129 250.65627105 1.78594971 246.1388855 C3.41233269 244.52546486 5.03539696 242.90876729 6.65771484 241.29125977 C10.68463423 237.27758899 14.71702663 233.26943165 18.74926758 229.2611084 C22.1682862 225.86194276 25.58516399 222.46065133 28.99932861 219.05661011 C30.58521006 217.47712934 32.17411096 215.90073203 33.76318359 214.32446289 C38.51856815 209.59271035 43.17597823 204.83356629 47.49938965 199.69923401 C49.1631116 197.81529864 50.94020319 196.11219851 52.78125 194.40234375 C53.70164062 193.54092773 53.70164062 193.54092773 54.640625 192.66210938 C55.89902656 191.49491549 57.170367 190.34154374 58.453125 189.20117188 C59.05640625 188.62818359 59.6596875 188.05519531 60.28125 187.46484375 C60.82845703 186.965896 61.37566406 186.46694824 61.93945312 185.95288086 C63.62656993 182.84624013 62.86164695 180.26321165 62 177 C60.64546622 172.64452619 59.11778676 168.35801339 57.57421875 164.06640625 C57.11433279 162.77304349 56.65502713 161.47947425 56.19625854 160.18571472 C54.95879087 156.70118413 53.71322048 153.21960065 52.46611404 149.73851013 C51.15551165 146.07574021 49.8524825 142.4102777 48.54858398 138.74511719 C46.14444994 131.99092823 43.73374786 125.2391063 41.31974316 118.48843956 C38.73794247 111.26840979 36.1618517 104.04635059 33.5859375 96.82421875 C30.69244039 88.7140312 27.7959628 80.60491833 24.89587402 72.49708557 C21.35595549 62.60038577 17.82339528 52.70113794 14.3046875 42.796875 C13.93159958 41.74675232 13.55851166 40.69662964 13.17411804 39.61468506 C11.426176 34.69373734 9.67937995 29.77238544 7.93383789 24.85058594 C7.31918043 23.11913805 6.70451612 21.38769259 6.08984375 19.65625 C5.81892914 18.89125183 5.54801453 18.12625366 5.26889038 17.33807373 C5.01249786 16.61613831 4.75610535 15.89420288 4.49194336 15.15039062 C4.24773651 14.46243408 4.00352966 13.77447754 3.75192261 13.06567383 C2.96830936 10.91293981 2.13782278 8.78133393 1.30688477 6.64648438 C0 3 0 3 0 0 Z " fill="#FE5C5C" transform="translate(386,78)"/>
<path d="M0 0 C3.80390519 3.70672513 7.31185382 7.57870831 10.75 11.625 C11.27585693 12.24109131 11.80171387 12.85718262 12.34350586 13.49194336 C16.1969428 18.0203323 19.97439687 22.60680699 23.72265625 27.22265625 C26.28204054 30.34396367 28.88593791 33.4245003 31.5 36.5 C35.61345997 41.34057598 39.65915467 46.22973506 43.66015625 51.1640625 C45.39507207 53.26681523 47.14807602 55.33951418 48.93359375 57.3984375 C49.68189453 58.2656543 49.68189453 58.2656543 50.4453125 59.15039062 C51.41500316 60.27111948 52.38999387 61.3872921 53.37109375 62.49804688 C55.97275822 65.51189365 57.77350738 68.20137714 59 72 C46.39754098 83.69953893 46.39754098 83.69953893 42 87.5 C38.42648214 90.58897307 34.96288886 93.78842213 31.5 97 C27.41701127 100.78633906 23.30230186 104.51767133 19.08984375 108.16015625 C16.35629481 110.56670121 13.67884343 113.03301444 11 115.5 C7.72144895 118.51926496 4.43419043 121.52202138 1.0625 124.4375 C-2.52958591 127.54964124 -6.01551992 130.76872086 -9.5 134 C-13.58570879 137.78881936 -17.70393273 141.52171864 -21.91796875 145.16796875 C-25.13491793 147.99864261 -28.2797068 150.90767016 -31.43334961 153.80834961 C-36.25604828 158.24237809 -41.12429137 162.62436405 -46 167 C-46.845625 167.763125 -47.69125 168.52625 -48.5625 169.3125 C-53.66911632 173.92090985 -58.80717057 178.48891075 -64 183 C-65 181 -65 181 -64.12988281 177.94213867 C-63.66220096 176.59797249 -63.18584123 175.25680932 -62.703125 173.91796875 C-62.44305161 173.17823318 -62.18297821 172.43849762 -61.9150238 171.67634583 C-61.03409066 169.17737745 -60.14208194 166.68250828 -59.25 164.1875 C-58.61769517 162.40188747 -57.9859544 160.61607512 -57.35473633 158.83007812 C-55.24880622 152.88230515 -53.12570201 146.94073058 -51 141 C-50.62929382 139.96345276 -50.25858765 138.92690552 -49.87664795 137.85894775 C-46.34263947 127.9791182 -42.80240317 118.10152959 -39.25415039 108.22680664 C-33.85804049 93.20707327 -28.50615482 78.17232333 -23.1875 63.125 C-18.12170563 48.80056747 -13.05095646 34.47795957 -7.93301392 20.17205811 C-7.3157872 18.44572911 -6.69954016 16.71904951 -6.08432007 14.99200439 C-5.24647344 12.6408065 -4.40503588 10.29092711 -3.5625 7.94140625 C-3.31546829 7.24607285 -3.06843658 6.55073944 -2.81391907 5.83433533 C-1.11442859 1.11442859 -1.11442859 1.11442859 0 0 Z " fill="#ECE9E6" transform="translate(127,77)"/>
<path d="M0 0 C2.43456499 2.96207394 3.7932249 5.69374049 5.05859375 9.30444336 C5.43826294 10.37649521 5.81793213 11.44854706 6.20910645 12.55308533 C6.61447632 13.72021561 7.01984619 14.88734589 7.4375 16.08984375 C8.10032798 17.9697693 8.76315786 19.84969417 9.42606354 21.72959232 C10.13344634 23.73987355 10.83736552 25.75133702 11.5402832 27.76318359 C13.0164915 31.98786397 14.50234938 36.20910748 15.99023438 40.4296875 C16.49573814 41.86385735 17.00123127 43.29803094 17.50671387 44.73220825 C17.7578746 45.44477909 18.00903534 46.15734993 18.26780701 46.89151382 C19.03475116 49.06853202 19.80076547 51.24587536 20.56652832 53.42330933 C24.78451854 65.41395288 29.06201201 77.38268155 33.36486816 89.34313965 C35.66351826 95.73580446 37.95365168 102.13152565 40.24530029 108.52670288 C42.23139703 114.06847837 44.21875956 119.6097925 46.20939636 125.14993858 C48.80324899 132.36906837 51.39170115 139.59009535 53.97154236 146.81424522 C55.2309025 150.34016213 56.49290535 153.86508009 57.76147461 157.38769531 C59.16694309 161.29070277 60.56053762 165.19784678 61.953125 169.10546875 C62.37914001 170.2829216 62.80515503 171.46037445 63.24407959 172.67350769 C63.6240509 173.7457106 64.00402222 174.81791351 64.39550781 175.92260742 C64.73124817 176.85973068 65.06698853 177.79685394 65.41290283 178.76237488 C66 181 66 181 65 183 C64.5153125 182.50371094 64.030625 182.00742187 63.53125 181.49609375 C59.57038231 177.48190668 55.53087411 173.65084066 51.2578125 169.97265625 C48.50553512 167.56798484 45.8137368 165.10008205 43.125 162.625 C37.78388013 157.71180616 32.40204212 152.84620499 27 148 C24.49687583 145.74797293 21.99453386 143.49507877 19.4921875 141.2421875 C17.85260121 139.76707382 16.21200345 138.29308348 14.5703125 136.8203125 C9.9796939 132.69902232 5.41552893 128.55126212 0.875 124.375 C-2.38390494 121.37819989 -5.65499549 118.40085453 -9 115.5 C-12.87817013 112.13677362 -16.65527811 108.66664329 -20.43310547 105.19189453 C-25.25584891 100.75776372 -30.1234112 96.3748176 -35 92 C-36.66692647 90.50028872 -38.33359149 89.00028679 -40 87.5 C-41.22396484 86.39978516 -41.22396484 86.39978516 -42.47265625 85.27734375 C-44.23406016 83.69017454 -45.99158153 82.09869047 -47.74609375 80.50390625 C-48.63425781 79.69824219 -49.52242188 78.89257812 -50.4375 78.0625 C-51.64212891 76.96615234 -51.64212891 76.96615234 -52.87109375 75.84765625 C-55.06292965 73.86672419 -55.06292965 73.86672419 -58 72 C-56.63733356 67.96194134 -54.8590849 65.45631882 -51.9375 62.375 C-47.90335746 58.01915551 -44.1176233 53.53117581 -40.3828125 48.91796875 C-37.79244152 45.74582593 -35.15317133 42.61956706 -32.5 39.5 C-28.38112517 34.65338614 -24.33398728 29.75468688 -20.3203125 24.8203125 C-17.70571211 21.64229654 -15.04358576 18.50764815 -12.375 15.375 C-8.10456198 10.35832945 -3.97767153 5.25378458 0 0 Z " fill="#C6BBB6" transform="translate(384,77)"/>
<path d="M0 0 C5.99959229 4.95618494 11.80855449 10.19226619 17 16 C17 16.66 17 17.32 17 18 C17.66 18 18.32 18 19 18 C20.43336487 19.4546051 20.43336487 19.4546051 22.10375977 21.47485352 C25.96867585 26.01716652 30.10050109 30.21122831 34.33984375 34.40234375 C35.10680069 35.16551407 35.87375763 35.92868439 36.66395569 36.71498108 C39.08603626 39.12495178 41.51135821 41.53161826 43.9375 43.9375 C47.15777337 47.13128723 50.37479001 50.32830321 53.58984375 53.52734375 C54.33346664 54.2626683 55.07708954 54.99799286 55.84324646 55.75559998 C56.52137894 56.43042923 57.19951141 57.10525848 57.89819336 57.80053711 C58.49885117 58.3959581 59.09950897 58.99137909 59.71836853 59.60484314 C61 61 61 61 61 62 C57.04526489 62.98089887 53.94613413 63.0897475 50 62 C45.72797284 58.70938448 42.57894361 54.12807066 39.37841797 49.83789062 C37.47800932 47.30401242 35.45994409 44.8745271 33.4375 42.4375 C32.72464844 41.55964844 32.01179688 40.68179688 31.27734375 39.77734375 C28.71795783 36.65603433 26.11398455 33.57556761 23.5 30.5 C19.35066401 25.61492028 15.25541873 20.69066936 11.21484375 15.71484375 C9.63633425 13.77998642 8.04359851 11.85669868 6.44140625 9.94140625 C5.20197266 8.45447266 5.20197266 8.45447266 3.9375 6.9375 C3.18339844 6.03902344 2.42929688 5.14054687 1.65234375 4.21484375 C0 2 0 2 0 0 Z " fill="#FE605F" transform="translate(136,86)"/>
</svg>
